<svg xmlns="http://www.w3.org/2000/svg" width="512" height="512" viewBox="0 0 512 512">
  <defs>
    <linearGradient id="bg" x1="0%" y1="0%" x2="100%" y2="100%">
      <stop offset="0%" stop-color="#3B82F6"/>
      <stop offset="100%" stop-color="#1D4ED8"/>
    </linearGradient>
  </defs>
  <!-- Background -->
  <rect width="512" height="512" rx="96" fill="url(#bg)"/>
  <!-- Calculator icon made of shapes -->
  <!-- Screen -->
  <rect x="96" y="96" width="320" height="100" rx="16" fill="white" fill-opacity="0.95"/>
  <!-- Number display lines -->
  <rect x="280" y="130" width="100" height="12" rx="4" fill="#3B82F6"/>
  <rect x="200" y="155" width="180" height="20" rx="4" fill="#1D4ED8"/>
  <!-- Button grid -->
  <rect x="96" y="220" width="68" height="56" rx="12" fill="white" fill-opacity="0.9"/>
  <rect x="180" y="220" width="68" height="56" rx="12" fill="white" fill-opacity="0.9"/>
  <rect x="264" y="220" width="68" height="56" rx="12" fill="white" fill-opacity="0.9"/>
  <rect x="348" y="220" width="68" height="56" rx="12" fill="white" fill-opacity="0.7"/>
  
  <rect x="96" y="292" width="68" height="56" rx="12" fill="white" fill-opacity="0.9"/>
  <rect x="180" y="292" width="68" height="56" rx="12" fill="white" fill-opacity="0.9"/>
  <rect x="264" y="292" width="68" height="56" rx="12" fill="white" fill-opacity="0.9"/>
  <rect x="348" y="292" width="68" height="56" rx="12" fill="white" fill-opacity="0.7"/>
  
  <rect x="96" y="364" width="68" height="56" rx="12" fill="white" fill-opacity="0.9"/>
  <rect x="180" y="364" width="68" height="56" rx="12" fill="white" fill-opacity="0.9"/>
  <rect x="264" y="364" width="68" height="56" rx="12" fill="white" fill-opacity="0.9"/>
  <rect x="348" y="364" width="68" height="56" rx="12" fill="#22C55E" fill-opacity="0.9"/>
</svg>
